<?xml version="1.0" standalone="no"?>
<!DOCTYPE svg PUBLIC "-//W3C//DTD SVG 20010904//EN"
 "http://www.w3.org/TR/2001/REC-SVG-20010904/DTD/svg10.dtd">
<svg version="1.0" xmlns="http://www.w3.org/2000/svg"
 width="580.000000pt" height="360.000000pt" viewBox="0 0 580.000000 360.000000"
 preserveAspectRatio="xMidYMid meet">

<g transform="translate(0.000000,360.000000) scale(0.100000,-0.100000)"
fill="#000000" stroke="none">
<path d="M2756 3040 c-176 -124 -189 -145 -109 -171 21 -6 57 -20 80 -30 41
-18 42 -19 32 -49 -22 -62 42 -83 71 -24 13 27 18 30 37 23 16 -6 27 -4 38 7
21 22 19 33 -10 46 -14 6 -25 16 -25 22 0 6 18 60 40 120 44 122 47 141 24
150 -29 11 -38 6 -178 -94z m73 -57 c-6 -21 -18 -52 -25 -70 l-14 -31 -45 17
c-26 10 -45 22 -44 27 2 11 131 105 137 99 2 -2 -2 -21 -9 -42z"/>
<path d="M3091 3033 c-45 -23 -87 -83 -111 -161 -24 -78 -25 -130 -4 -176 34
-70 139 -98 204 -53 65 44 131 209 116 289 -9 48 -33 77 -80 99 -51 23 -81 23
-125 2z m130 -86 c25 -45 -27 -207 -79 -248 -32 -25 -53 -24 -87 3 -26 20 -27
25 -22 76 7 68 62 182 96 199 30 14 77 -1 92 -30z"/>
<path d="M3450 2799 c-68 -49 -136 -100 -150 -115 l-25 -25 23 -19 c12 -10 52
-28 87 -40 65 -22 70 -28 56 -65 -23 -55 45 -77 71 -23 12 26 20 32 49 32 27
1 34 5 34 21 0 11 -10 24 -22 30 -13 5 -23 12 -23 16 0 3 20 59 44 125 69 187
44 198 -144 63z m54 -86 c-13 -38 -24 -69 -24 -70 0 -7 -29 -1 -67 13 l-43 17
72 53 c40 29 76 53 80 54 4 0 -4 -30 -18 -67z"/>
<path d="M1724 2302 c-23 -15 -33 -53 -45 -163 -9 -89 -19 -134 -47 -204 -33
-82 -36 -99 -37 -190 l0 -100 535 3 c294 2 538 7 541 10 4 4 11 21 17 37 6 17
37 99 70 182 l60 153 -27 -7 c-14 -3 -84 -26 -155 -50 -102 -35 -131 -41 -138
-31 -28 42 -36 74 -41 175 -12 219 -61 247 -189 110 l-67 -72 -134 -1 -135 -1
-48 57 c-74 86 -125 116 -160 92z m115 -526 c-9 -19 -10 -35 -2 -61 l11 -35
-28 16 c-28 17 -66 71 -57 81 7 7 81 32 85 28 1 -1 -3 -14 -9 -29z m491 18
c22 -9 40 -23 40 -31 0 -17 -65 -83 -81 -83 -6 0 -5 9 2 21 11 21 9 58 -6 92
-9 21 -6 21 45 1z m-370 -36 c33 -55 23 -88 -26 -88 -12 0 -13 4 -3 21 6 13 9
38 5 60 -8 48 -2 49 24 7z m240 1 c-6 -18 -5 -40 1 -56 12 -32 8 -36 -26 -27
-24 6 -26 10 -21 37 5 25 40 77 52 77 1 0 -1 -14 -6 -31z"/>
<path d="M3090 2081 c-93 -10 -215 -32 -230 -41 -6 -4 -44 -92 -85 -196 l-74
-189 95 -3 95 -3 -6 -30 c-9 -39 -8 -123 1 -152 22 -73 103 -124 177 -112 56
10 106 62 129 135 44 139 67 151 254 140 l139 -8 125 50 c178 71 165 61 138
110 -13 23 -55 74 -94 114 -118 120 -276 181 -489 189 -55 2 -134 0 -175 -4z"/>
<path d="M772 330 c-42 -26 -66 -80 -59 -138 6 -58 34 -93 85 -112 82 -28 159
23 169 112 10 86 -48 158 -127 158 -19 0 -50 -9 -68 -20z m123 -45 c36 -35 36
-115 0 -150 -33 -34 -78 -33 -111 2 -23 25 -25 35 -22 82 4 41 11 59 28 73 32
26 76 23 105 -7z"/>
<path d="M3945 343 c-29 -7 -55 -33 -55 -55 0 -11 -9 -22 -20 -25 -26 -7 -26
-29 0 -36 16 -4 19 -15 22 -78 2 -58 6 -74 18 -74 12 0 16 17 18 78 3 74 4 77
27 77 16 0 25 6 25 15 0 9 -9 15 -25 15 -38 0 -30 44 10 51 11 3 20 11 20 18
0 17 -12 21 -40 14z"/>
<path d="M4827 344 c-4 -4 -7 -29 -7 -56 0 -45 -11 -61 -25 -38 -8 13 -61 13
-85 0 -10 -5 -23 -24 -29 -42 -30 -87 48 -172 114 -124 17 12 21 12 31 -3 26
-34 35 2 32 134 -3 119 -10 150 -31 129z m-18 -145 c31 -55 -16 -116 -65 -84
-18 12 -24 24 -24 53 0 21 6 44 12 50 20 20 61 10 77 -19z"/>
<path d="M3637 313 c-4 -3 -7 -17 -7 -30 0 -16 -6 -23 -20 -23 -11 0 -20 -7
-20 -15 0 -8 9 -15 20 -15 18 0 20 -7 20 -58 0 -73 14 -94 65 -96 30 -1 40 3
43 16 3 14 -3 18 -22 18 -32 0 -48 29 -44 78 3 32 7 37 31 40 35 4 35 30 0 34
-22 2 -29 9 -31 31 -3 25 -20 35 -35 20z"/>
<path d="M1061 254 c-54 -23 -68 -103 -27 -151 20 -23 32 -28 69 -28 54 0 84
23 93 72 6 33 -9 88 -28 100 -27 16 -77 19 -107 7z m78 -38 c21 -25 16 -77 -9
-98 -27 -22 -31 -22 -55 -4 -22 16 -26 76 -6 100 17 20 55 21 70 2z"/>
<path d="M1542 254 c-18 -7 -32 -9 -32 -4 0 6 -9 10 -20 10 -20 0 -20 -5 -18
-127 3 -106 6 -128 18 -128 11 0 16 13 18 47 l3 46 28 -15 c35 -20 75 -11 97
22 18 28 21 94 5 123 -16 30 -61 42 -99 26z m58 -43 c16 -31 12 -69 -10 -91
-25 -25 -35 -25 -60 0 -24 24 -26 72 -4 94 21 22 61 20 74 -3z"/>
<path d="M2460 262 c-29 -4 -52 -21 -45 -32 3 -4 25 -5 49 -3 37 5 46 2 55
-14 14 -27 6 -33 -45 -33 -62 0 -89 -33 -64 -80 13 -24 63 -35 90 -20 16 9 25
8 35 0 8 -7 19 -9 25 -5 14 9 12 125 -3 155 -13 25 -52 38 -97 32z m60 -120
c0 -38 -46 -56 -70 -27 -18 21 4 45 41 45 21 0 29 -5 29 -18z"/>
<path d="M2903 255 c-40 -17 -54 -38 -55 -83 0 -50 18 -79 61 -93 42 -14 111
3 111 27 0 13 -6 15 -27 9 -54 -13 -61 -13 -82 1 -41 29 -26 44 44 44 62 0 65
1 65 24 0 31 -34 72 -64 78 -13 3 -37 0 -53 -7z m58 -25 c10 -6 19 -20 19 -30
0 -17 -7 -20 -45 -20 -51 0 -60 18 -23 44 27 19 24 19 49 6z"/>
<path d="M1263 240 c-30 -27 -37 -71 -19 -114 17 -42 55 -60 103 -51 69 13 99
110 48 160 -31 32 -101 35 -132 5z m99 -27 c24 -21 23 -68 -2 -93 -24 -24 -29
-24 -58 -4 -25 17 -31 81 -10 102 17 17 48 15 70 -5z"/>
<path d="M1710 240 c-11 -11 -20 -23 -20 -28 0 -21 33 -50 64 -56 44 -8 62
-29 40 -47 -12 -10 -25 -10 -55 -2 -25 6 -42 7 -45 1 -10 -17 12 -30 59 -35
39 -5 49 -2 71 20 14 14 26 31 26 37 0 18 -40 50 -63 50 -31 0 -62 24 -52 40
5 8 23 11 56 8 35 -4 49 -1 49 7 0 31 -100 35 -130 5z"/>
<path d="M2178 139 c-2 -67 0 -126 3 -131 4 -6 14 -8 23 -5 11 5 16 19 16 52
0 46 0 46 22 31 32 -23 65 -20 93 9 34 33 36 114 3 145 -24 22 -86 28 -105 9
-8 -8 -13 -8 -17 0 -4 6 -13 11 -21 11 -11 0 -14 -26 -17 -121z m136 60 c20
-58 -18 -109 -65 -86 -28 14 -37 63 -19 97 17 31 71 24 84 -11z"/>
<path d="M2631 234 c-25 -31 -27 -74 -6 -113 22 -44 71 -55 113 -25 20 14 22
14 22 -4 0 -47 -32 -61 -114 -50 -32 5 -29 -19 5 -31 43 -15 74 -14 108 4 36
18 41 37 41 153 0 84 -2 92 -19 92 -11 0 -21 -6 -24 -12 -4 -10 -7 -10 -18 0
-7 6 -30 12 -50 12 -29 0 -43 -6 -58 -26z m114 -28 c30 -46 -7 -106 -56 -91
-11 4 -24 18 -29 31 -25 64 48 116 85 60z"/>
<path d="M3172 168 c2 -75 6 -93 18 -93 11 0 17 16 21 62 7 70 20 93 55 93 27
0 32 -15 36 -100 2 -41 7 -55 18 -55 12 0 16 16 18 72 4 92 -7 113 -56 113
-21 0 -44 -6 -51 -12 -11 -10 -14 -10 -18 0 -3 6 -13 12 -24 12 -18 0 -20 -6
-17 -92z"/>
<path d="M3415 235 c-28 -27 -34 -97 -11 -127 34 -45 124 -46 152 -2 25 37 22
100 -6 129 -33 35 -101 35 -135 0z m105 -24 c18 -34 12 -78 -12 -95 -29 -20
-34 -20 -58 4 -22 22 -26 60 -10 91 14 26 66 26 80 0z"/>
<path d="M4025 235 c-34 -33 -34 -93 -1 -132 20 -23 32 -28 69 -28 54 0 84 23
93 72 7 39 -11 89 -37 103 -35 19 -98 12 -124 -15z m103 -17 c21 -21 15 -85
-10 -102 -12 -9 -26 -16 -30 -16 -17 0 -48 41 -48 63 0 51 56 87 88 55z"/>
<path d="M4230 185 c0 -62 4 -79 20 -95 23 -23 58 -26 85 -6 17 12 21 12 31
-2 23 -31 34 -2 34 89 0 82 -1 89 -20 89 -18 0 -20 -7 -20 -56 0 -70 -12 -94
-49 -94 -25 0 -29 4 -35 37 -3 21 -6 55 -6 76 0 30 -4 37 -20 37 -18 0 -20 -7
-20 -75z"/>
<path d="M4462 168 c2 -75 6 -93 18 -93 11 0 16 16 20 65 6 76 13 90 45 90 32
0 39 -14 45 -90 4 -49 9 -65 20 -65 24 0 27 141 4 166 -19 21 -64 25 -95 9
-13 -7 -19 -7 -19 0 0 5 -9 10 -20 10 -20 0 -21 -5 -18 -92z"/>
<path d="M1886 114 c-9 -23 19 -53 35 -37 15 15 7 47 -12 51 -9 2 -19 -5 -23
-14z"/>
<path d="M1987 123 c-22 -21 2 -56 31 -46 17 7 15 40 -4 47 -19 7 -19 7 -27
-1z"/>
<path d="M2080 114 c-11 -12 -10 -18 3 -32 16 -15 18 -15 34 0 13 14 14 20 3
32 -16 20 -24 20 -40 0z"/>
</g>
</svg>
