<svg width="123" height="20" viewBox="0 0 123 20" fill="none" xmlns="http://www.w3.org/2000/svg">
<path d="M10 14.3917L13.4583 16.4834C14.0917 16.8667 14.8667 16.3 14.7 15.5834L13.7833 11.65L16.8417 9.00003C17.4 8.5167 17.1 7.60003 16.3667 7.5417L12.3417 7.20003L10.7667 3.48336C10.4833 2.80836 9.51667 2.80836 9.23333 3.48336L7.65833 7.1917L3.63333 7.53336C2.9 7.5917 2.6 8.50836 3.15833 8.9917L6.21667 11.6417L5.3 15.575C5.13333 16.2917 5.90833 16.8584 6.54167 16.475L10 14.3917Z" fill="#F7C325"/>
<path d="M30 14.3917L33.4583 16.4834C34.0917 16.8667 34.8667 16.3 34.7 15.5834L33.7833 11.65L36.8417 9.00003C37.4 8.5167 37.1 7.60003 36.3667 7.5417L32.3417 7.20003L30.7667 3.48336C30.4833 2.80836 29.5167 2.80836 29.2333 3.48336L27.6583 7.1917L23.6333 7.53336C22.9 7.5917 22.6 8.50836 23.1583 8.9917L26.2167 11.6417L25.3 15.575C25.1333 16.2917 25.9083 16.8584 26.5417 16.475L30 14.3917Z" fill="#F7C325"/>
<path d="M50 14.3917L53.4583 16.4834C54.0917 16.8667 54.8667 16.3 54.7 15.5834L53.7833 11.65L56.8417 9.00003C57.4 8.5167 57.1 7.60003 56.3667 7.5417L52.3417 7.20003L50.7667 3.48336C50.4833 2.80836 49.5167 2.80836 49.2333 3.48336L47.6583 7.1917L43.6333 7.53336C42.9 7.5917 42.6 8.50836 43.1583 8.9917L46.2167 11.6417L45.3 15.575C45.1333 16.2917 45.9083 16.8584 46.5417 16.475L50 14.3917Z" fill="#F7C325"/>
<path d="M70 14.3917L73.4583 16.4834C74.0917 16.8667 74.8667 16.3 74.7 15.5834L73.7833 11.65L76.8417 9.00003C77.4 8.5167 77.1 7.60003 76.3667 7.5417L72.3417 7.20003L70.7667 3.48336C70.4833 2.80836 69.5167 2.80836 69.2333 3.48336L67.6583 7.1917L63.6333 7.53336C62.9 7.5917 62.6 8.50836 63.1583 8.9917L66.2167 11.6417L65.3 15.575C65.1333 16.2917 65.9083 16.8584 66.5417 16.475L70 14.3917Z" fill="#F7C325"/>
<path d="M96.375 7.53333L92.3417 7.18333L90.7667 3.475C90.4833 2.8 89.5167 2.8 89.2333 3.475L87.6583 7.19167L83.6333 7.53333C82.9 7.59167 82.6 8.50833 83.1583 8.99167L86.2167 11.6417L85.3 15.575C85.1333 16.2917 85.9083 16.8583 86.5417 16.475L90 14.3917L93.4583 16.4833C94.0917 16.8667 94.8667 16.3 94.7 15.5833L93.7833 11.6417L96.8417 8.99167C97.4 8.50833 97.1083 7.59167 96.375 7.53333ZM90 12.8333V5.08333L91.425 8.45L95.075 8.76667L92.3083 11.1667L93.1417 14.7333L90 12.8333Z" fill="#F7C325"/>
<path d="M100.882 11.0693V10.9531C100.882 9.97786 100.987 9.09375 101.196 8.30078C101.41 7.50326 101.688 6.80599 102.03 6.20898C102.372 5.60742 102.737 5.11068 103.124 4.71875C103.516 4.32227 103.892 4.03743 104.252 3.86426L104.58 4.80762C104.316 5.00358 104.051 5.27474 103.787 5.62109C103.527 5.96745 103.288 6.39355 103.069 6.89941C102.855 7.40072 102.682 7.98861 102.55 8.66309C102.422 9.33301 102.358 10.0918 102.358 10.9395V11.083C102.358 11.9307 102.422 12.6917 102.55 13.3662C102.682 14.0361 102.855 14.624 103.069 15.1299C103.288 15.6357 103.527 16.0641 103.787 16.415C104.051 16.7705 104.316 17.0531 104.58 17.2627L104.252 18.165C103.892 17.9873 103.516 17.7002 103.124 17.3037C102.737 16.9118 102.372 16.415 102.03 15.8135C101.688 15.2165 101.41 14.5215 101.196 13.7285C100.987 12.931 100.882 12.0446 100.882 11.0693ZM111.277 13.6875V15H104.605V13.8721L107.846 10.3379C108.201 9.93685 108.481 9.59049 108.687 9.29883C108.892 9.00716 109.035 8.74512 109.117 8.5127C109.204 8.27572 109.247 8.04557 109.247 7.82227C109.247 7.50781 109.188 7.2321 109.069 6.99512C108.955 6.75358 108.787 6.56445 108.563 6.42773C108.34 6.28646 108.069 6.21582 107.75 6.21582C107.381 6.21582 107.071 6.29557 106.82 6.45508C106.57 6.61458 106.381 6.83561 106.253 7.11816C106.125 7.39616 106.062 7.71517 106.062 8.0752H104.414C104.414 7.49642 104.546 6.96777 104.811 6.48926C105.075 6.00618 105.458 5.62337 105.959 5.34082C106.46 5.05371 107.064 4.91016 107.771 4.91016C108.436 4.91016 109.001 5.02181 109.466 5.24512C109.931 5.46842 110.284 5.78516 110.525 6.19531C110.771 6.60547 110.895 7.09082 110.895 7.65137C110.895 7.96126 110.844 8.26888 110.744 8.57422C110.644 8.87956 110.5 9.1849 110.313 9.49023C110.131 9.79102 109.915 10.0941 109.664 10.3994C109.413 10.7002 109.138 11.0055 108.837 11.3154L106.684 13.6875H111.277ZM118.419 11.4521V12.7646H111.241L111.187 11.7734L115.479 5.04688H116.799L115.37 7.49414L112.902 11.4521H118.419ZM117.175 5.04688V15H115.527V5.04688H117.175ZM121.794 10.9531V11.0693C121.794 12.0309 121.685 12.9082 121.466 13.7012C121.252 14.4941 120.971 15.1914 120.625 15.793C120.283 16.3945 119.912 16.8958 119.511 17.2969C119.114 17.6979 118.734 17.9873 118.369 18.165L118.034 17.2627C118.299 17.0622 118.561 16.7865 118.82 16.4355C119.085 16.0892 119.324 15.6585 119.538 15.1436C119.757 14.6331 119.93 14.0407 120.058 13.3662C120.19 12.6917 120.256 11.9307 120.256 11.083V10.9395C120.256 10.0918 120.188 9.33073 120.051 8.65625C119.919 7.97721 119.741 7.38477 119.518 6.87891C119.294 6.36849 119.053 5.93783 118.793 5.58691C118.533 5.236 118.28 4.96257 118.034 4.7666L118.369 3.86426C118.734 4.03743 119.114 4.32454 119.511 4.72559C119.912 5.12663 120.283 5.63021 120.625 6.23633C120.971 6.83789 121.252 7.53516 121.466 8.32812C121.685 9.12109 121.794 9.99609 121.794 10.9531Z" fill="#1E000E"/>
</svg>
