<svg width="32" height="32" viewBox="0 0 32 32" fill="none" xmlns="http://www.w3.org/2000/svg">
<path d="M11.998 21C11.5672 21.0009 11.1468 20.8674 10.7954 20.6181C10.4441 20.3687 10.1793 20.016 10.038 19.609L9.247 17.178C9.06045 16.6108 8.74287 16.0955 8.32 15.674C7.89774 15.2499 7.38244 14.9301 6.815 14.74L4.414 13.959C4.10752 13.8561 3.8293 13.6831 3.60151 13.4537C3.37372 13.2243 3.20266 12.9449 3.10194 12.6377C3.00123 12.3305 2.97365 12.004 3.0214 11.6843C3.06915 11.3645 3.19092 11.0604 3.377 10.796C3.625 10.442 3.977 10.174 4.385 10.03L6.824 9.24C7.37143 9.04674 7.86808 8.73218 8.27676 8.31986C8.68545 7.90754 8.9956 7.40813 9.184 6.859L9.982 4.405C10.122 3.988 10.392 3.627 10.752 3.374C11.1047 3.13016 11.5232 2.99954 11.952 2.99954C12.3808 2.99954 12.7993 3.13016 13.152 3.374C13.502 3.621 13.766 3.97 13.908 4.374L14.703 6.814C14.8913 7.37959 15.209 7.89341 15.6309 8.31458C16.0528 8.73575 16.5671 9.05263 17.133 9.24L19.538 10.02C19.974 10.159 20.353 10.435 20.62 10.807C20.8678 11.1568 21.0008 11.5749 21.0008 12.0035C21.0008 12.4321 20.8678 12.8502 20.62 13.2C20.373 13.55 20.024 13.815 19.62 13.959L17.177 14.753C16.6129 14.9401 16.1005 15.2569 15.681 15.678C15.26 16.101 14.941 16.616 14.752 17.182L13.972 19.584C13.8247 19.9972 13.5573 20.3569 13.204 20.617C12.852 20.867 12.43 21.002 11.998 21ZM23.504 30C23.1439 30.0014 22.7924 29.8904 22.4984 29.6824C22.2044 29.4745 21.9826 29.18 21.864 28.84L21.316 27.164C21.2042 26.8196 21.0127 26.5064 20.757 26.25C20.4998 25.9939 20.1871 25.8005 19.843 25.685L18.19 25.15C17.8395 25.0305 17.5359 24.8029 17.323 24.5C17.1665 24.2809 17.0632 24.0284 17.0213 23.7625C16.9795 23.4965 17.0002 23.2245 17.0818 22.968C17.1634 22.7114 17.3037 22.4774 17.4916 22.2846C17.6795 22.0917 17.9097 21.9453 18.164 21.857L19.845 21.309C20.1814 21.1905 20.486 20.9963 20.7355 20.7414C20.985 20.4865 21.1726 20.1778 21.284 19.839L21.819 18.189C21.904 17.9308 22.0486 17.6963 22.2411 17.5044C22.4335 17.3125 22.6684 17.1686 22.9268 17.0842C23.1852 16.9999 23.4598 16.9776 23.7284 17.0191C23.997 17.0606 24.2521 17.1647 24.473 17.323C24.768 17.53 24.99 17.825 25.107 18.165L25.653 19.841C25.7682 20.1832 25.9613 20.4939 26.2171 20.7486C26.4729 21.0034 26.7844 21.1952 27.127 21.309L28.782 21.849C29.1308 21.9572 29.4364 22.173 29.6553 22.4653C29.8741 22.7577 29.9949 23.1117 30.0005 23.4769C30.006 23.842 29.896 24.1996 29.6861 24.4985C29.4763 24.7973 29.1773 25.0222 28.832 25.141L27.159 25.687C26.8159 25.7996 26.5042 25.9915 26.249 26.247C25.9939 26.5038 25.8012 26.8158 25.686 27.159L25.148 28.809C25.0277 29.1588 24.8003 29.4618 24.498 29.675C24.2081 29.8833 23.8609 29.9968 23.504 30Z" fill="#FAFAFA"/>
</svg>
